<svg xmlns="http://www.w3.org/2000/svg">
	<g id="mode_connect">
		<svg viewBox="0 0 1024 1024" version="1.1" xmlns="http://www.w3.org/2000/svg" xmlns:xlink="http://www.w3.org/1999/xlink" width="24" height="24">
			<defs><style type="text/css"></style></defs>
			<path d="M937.353846 724.676923C882.215385 669.538462 795.569231 661.661538 732.553846 701.046154L362.338462 330.830769C401.723077 267.815385 393.846154 181.169231 338.707692 126.030769 267.815385 55.138462 165.415385 55.138462 94.523077 126.030769 23.630769 196.923077 23.630769 299.323077 94.523077 370.215385 149.661538 425.353846 236.307692 433.230769 299.323077 393.846154L669.538462 764.061538C630.153846 827.076923 638.030769 913.723077 693.169231 968.861538 764.061538 1039.753846 866.461538 1039.753846 937.353846 968.861538 1000.369231 897.969231 1000.369231 795.569231 937.353846 724.676923L937.353846 724.676923ZM275.692308 307.2C244.184615 338.707692 189.046154 338.707692 157.538462 307.2 126.030769 275.692308 126.030769 220.553846 157.538462 189.046154 189.046154 157.538462 244.184615 157.538462 275.692308 189.046154 307.2 220.553846 307.2 267.815385 275.692308 307.2L275.692308 307.2ZM874.338462 913.723077C842.830769 945.230769 787.692308 945.230769 756.184615 913.723077 724.676923 882.215385 724.676923 827.076923 756.184615 795.569231 787.692308 764.061538 842.830769 764.061538 874.338462 795.569231 905.846154 827.076923 905.846154 874.338462 874.338462 913.723077L874.338462 913.723077Z" p-id="10326" fill="#18517e"></path>
		</svg>
	</g>
	<g id="svg_eof"/>
</svg>